<svg xmlns="http://www.w3.org/2000/svg" xmlns:xlink="http://www.w3.org/1999/xlink" width="280" zoomAndPan="magnify" viewBox="0 0 210 60" height="80" preserveAspectRatio="xMidYMid meet" version="1.0"><defs><g/><clipPath id="0460ff8e46"><path d="M 6 11.117188 L 56.25 11.117188 L 56.25 48.574219 L 6 48.574219 Z M 6 11.117188 " clip-rule="nonzero"/></clipPath></defs><g clip-path="url(#0460ff8e46)"><path fill="#49108b" d="M 26.898438 28.746094 L 30.023438 25.652344 C 30.683594 24.996094 31.75 25 32.40625 25.660156 L 35.570312 28.84375 C 36.226562 29.503906 36.222656 30.574219 35.558594 31.230469 L 32.4375 34.324219 C 31.773438 34.980469 30.710938 34.976562 30.054688 34.316406 L 26.890625 31.132812 C 26.234375 30.472656 26.238281 29.402344 26.898438 28.746094 Z M 54.007812 24.085938 L 43.417969 13.425781 C 40.371094 10.363281 35.417969 10.34375 32.347656 13.382812 L 39.238281 20.320312 L 47.511719 28.640625 L 47.539062 28.671875 C 48.273438 29.441406 48.261719 30.652344 47.5 31.40625 L 39.164062 39.664062 L 39.136719 39.691406 C 38.460938 40.335938 37.488281 39.285156 38.148438 38.628906 L 42.785156 34.035156 C 44.992188 31.847656 45.007812 28.285156 42.816406 26.082031 L 30.660156 13.847656 C 27.382812 10.550781 22.050781 10.527344 18.75 13.800781 L 8.496094 23.960938 C 5.183594 27.242188 5.164062 32.585938 8.449219 35.890625 L 19.042969 46.546875 C 22.089844 49.613281 27.042969 49.632812 30.113281 46.589844 L 23.222656 39.65625 L 14.949219 31.332031 L 14.921875 31.304688 L 14.921875 31.300781 C 14.1875 30.53125 14.199219 29.320312 14.960938 28.570312 L 23.296875 20.308594 L 23.324219 20.28125 C 24 19.636719 24.972656 20.6875 24.308594 21.347656 L 19.671875 25.941406 C 17.464844 28.128906 17.453125 31.691406 19.640625 33.894531 L 31.800781 46.125 C 35.078125 49.425781 40.40625 49.445312 43.710938 46.171875 L 53.964844 36.015625 C 57.273438 32.734375 57.292969 27.390625 54.007812 24.085938 " fill-opacity="1" fill-rule="nonzero"/></g><g fill="#000000" fill-opacity="1"><g transform="translate(61.716677, 40.875)"><g><path d="M 9.828125 0 L 0.984375 0 L 0.984375 -1.25 C 1.691406 -1.59375 2.398438 -1.847656 3.109375 -2.015625 L 3.109375 -21.40625 L 0.671875 -21.65625 L 0.671875 -22.90625 C 0.953125 -23.039062 1.335938 -23.171875 1.828125 -23.296875 C 2.316406 -23.421875 2.84375 -23.53125 3.40625 -23.625 C 3.96875 -23.726562 4.53125 -23.816406 5.09375 -23.890625 C 5.664062 -23.960938 6.175781 -24.019531 6.625 -24.0625 L 7.71875 -24.0625 L 7.71875 -2.015625 C 8.414062 -1.847656 9.117188 -1.59375 9.828125 -1.25 Z M 9.828125 0 "/></g></g></g><g fill="#000000" fill-opacity="1"><g transform="translate(72.338064, 40.875)"><g><path d="M 9.828125 0 L 0.984375 0 L 0.984375 -1.25 C 1.304688 -1.414062 1.640625 -1.554688 1.984375 -1.671875 C 2.328125 -1.796875 2.703125 -1.910156 3.109375 -2.015625 L 3.109375 -13.734375 L 0.984375 -13.984375 L 0.984375 -15.234375 C 1.304688 -15.359375 1.707031 -15.484375 2.1875 -15.609375 C 2.664062 -15.742188 3.171875 -15.859375 3.703125 -15.953125 C 4.242188 -16.046875 4.769531 -16.128906 5.28125 -16.203125 C 5.789062 -16.273438 6.238281 -16.335938 6.625 -16.390625 L 7.71875 -16.390625 L 7.71875 -2.015625 C 8.144531 -1.910156 8.523438 -1.796875 8.859375 -1.671875 C 9.203125 -1.554688 9.523438 -1.414062 9.828125 -1.25 Z M 2.5625 -21.25 C 2.5625 -22 2.816406 -22.582031 3.328125 -23 C 3.835938 -23.425781 4.5 -23.640625 5.3125 -23.640625 C 6.125 -23.640625 6.785156 -23.425781 7.296875 -23 C 7.804688 -22.582031 8.0625 -22 8.0625 -21.25 C 8.0625 -20.519531 7.804688 -19.941406 7.296875 -19.515625 C 6.785156 -19.085938 6.125 -18.875 5.3125 -18.875 C 4.5 -18.875 3.835938 -19.085938 3.328125 -19.515625 C 2.816406 -19.941406 2.5625 -20.519531 2.5625 -21.25 Z M 2.5625 -21.25 "/></g></g></g><g fill="#000000" fill-opacity="1"><g transform="translate(82.959451, 40.875)"><g><path d="M 20.21875 0 L 11.75 0 L 11.75 -1.25 C 12.019531 -1.394531 12.285156 -1.523438 12.546875 -1.640625 C 12.816406 -1.765625 13.132812 -1.890625 13.5 -2.015625 L 13.5 -9.53125 C 13.5 -10.875 13.304688 -11.925781 12.921875 -12.6875 C 12.546875 -13.445312 11.863281 -13.828125 10.875 -13.828125 C 10.0625 -13.828125 9.363281 -13.5625 8.78125 -13.03125 C 8.195312 -12.507812 7.753906 -11.800781 7.453125 -10.90625 L 7.453125 -2.015625 C 7.796875 -1.929688 8.097656 -1.828125 8.359375 -1.703125 C 8.628906 -1.585938 8.914062 -1.4375 9.21875 -1.25 L 9.21875 0 L 0.734375 0 L 0.734375 -1.25 C 1.265625 -1.519531 1.96875 -1.773438 2.84375 -2.015625 L 2.84375 -13.734375 L 0.734375 -13.984375 L 0.734375 -15.234375 C 1.015625 -15.359375 1.378906 -15.476562 1.828125 -15.59375 C 2.273438 -15.71875 2.757812 -15.832031 3.28125 -15.9375 C 3.800781 -16.039062 4.332031 -16.128906 4.875 -16.203125 C 5.425781 -16.273438 5.925781 -16.335938 6.375 -16.390625 L 7.453125 -16.390625 L 7.453125 -13.09375 L 7.484375 -13.09375 C 7.929688 -13.988281 8.601562 -14.757812 9.5 -15.40625 C 10.394531 -16.0625 11.484375 -16.390625 12.765625 -16.390625 C 13.597656 -16.390625 14.34375 -16.285156 15 -16.078125 C 15.664062 -15.878906 16.226562 -15.519531 16.6875 -15 C 17.144531 -14.488281 17.492188 -13.800781 17.734375 -12.9375 C 17.984375 -12.070312 18.109375 -10.976562 18.109375 -9.65625 L 18.109375 -2.015625 C 18.960938 -1.867188 19.664062 -1.613281 20.21875 -1.25 Z M 20.21875 0 "/></g></g></g><g fill="#000000" fill-opacity="1"><g transform="translate(103.562386, 40.875)"><g><path d="M 10.296875 -16 L 17.796875 -16 L 17.796875 -14.75 C 17.390625 -14.582031 17.007812 -14.429688 16.65625 -14.296875 C 16.300781 -14.171875 15.910156 -14.066406 15.484375 -13.984375 C 15.171875 -13.554688 14.828125 -13.132812 14.453125 -12.71875 C 14.078125 -12.300781 13.703125 -11.898438 13.328125 -11.515625 C 12.953125 -11.128906 12.59375 -10.757812 12.25 -10.40625 C 11.914062 -10.0625 11.609375 -9.75 11.328125 -9.46875 C 11.648438 -9.039062 12.023438 -8.53125 12.453125 -7.9375 C 12.878906 -7.34375 13.335938 -6.707031 13.828125 -6.03125 C 14.316406 -5.363281 14.832031 -4.679688 15.375 -3.984375 C 15.914062 -3.285156 16.46875 -2.628906 17.03125 -2.015625 L 18.65625 -1.25 L 18.65625 0 L 13.25 0 L 12.390625 -0.765625 C 11.890625 -1.429688 11.453125 -2.050781 11.078125 -2.625 C 10.710938 -3.195312 10.378906 -3.75 10.078125 -4.28125 C 9.773438 -4.820312 9.484375 -5.34375 9.203125 -5.84375 C 8.929688 -6.34375 8.660156 -6.835938 8.390625 -7.328125 L 7.328125 -7.640625 L 7.328125 -2.015625 C 7.691406 -1.953125 8.019531 -1.851562 8.3125 -1.71875 C 8.613281 -1.59375 8.9375 -1.4375 9.28125 -1.25 L 9.28125 0 L 0.609375 0 L 0.609375 -1.25 C 1.304688 -1.59375 2.007812 -1.847656 2.71875 -2.015625 L 2.71875 -21.40625 L 0.28125 -21.65625 L 0.28125 -22.90625 C 0.582031 -23.039062 0.988281 -23.171875 1.5 -23.296875 C 2.007812 -23.421875 2.550781 -23.53125 3.125 -23.625 C 3.707031 -23.726562 4.273438 -23.816406 4.828125 -23.890625 C 5.378906 -23.960938 5.847656 -24.019531 6.234375 -24.0625 L 7.328125 -24.0625 L 7.328125 -9.0625 L 8.15625 -9.0625 C 8.863281 -9.800781 9.519531 -10.617188 10.125 -11.515625 C 10.738281 -12.410156 11.28125 -13.234375 11.75 -13.984375 C 11.46875 -14.066406 11.210938 -14.171875 10.984375 -14.296875 C 10.765625 -14.429688 10.535156 -14.582031 10.296875 -14.75 Z M 10.296875 -16 "/></g></g></g><g fill="#000000" fill-opacity="1"><g transform="translate(122.213806, 40.875)"><g><path d="M 24.765625 3.578125 C 24.378906 3.984375 23.96875 4.375 23.53125 4.75 C 23.09375 5.125 22.632812 5.457031 22.15625 5.75 C 21.675781 6.050781 21.171875 6.285156 20.640625 6.453125 C 20.109375 6.628906 19.550781 6.71875 18.96875 6.71875 C 17.988281 6.71875 17.003906 6.539062 16.015625 6.1875 C 15.023438 5.832031 13.988281 5.425781 12.90625 4.96875 C 11.832031 4.507812 10.703125 4.066406 9.515625 3.640625 C 8.335938 3.222656 7.050781 2.925781 5.65625 2.75 L 6.46875 1.34375 C 7.488281 1.15625 8.492188 1.109375 9.484375 1.203125 C 10.472656 1.296875 11.453125 1.453125 12.421875 1.671875 C 13.398438 1.898438 14.375 2.148438 15.34375 2.421875 C 16.3125 2.703125 17.285156 2.925781 18.265625 3.09375 C 19.253906 3.269531 20.257812 3.351562 21.28125 3.34375 C 22.300781 3.332031 23.359375 3.144531 24.453125 2.78125 Z M 1.25 -11.203125 C 1.25 -12.867188 1.484375 -14.410156 1.953125 -15.828125 C 2.421875 -17.242188 3.113281 -18.46875 4.03125 -19.5 C 4.945312 -20.539062 6.078125 -21.347656 7.421875 -21.921875 C 8.765625 -22.492188 10.3125 -22.78125 12.0625 -22.78125 C 13.8125 -22.78125 15.359375 -22.492188 16.703125 -21.921875 C 18.046875 -21.347656 19.171875 -20.539062 20.078125 -19.5 C 20.984375 -18.46875 21.671875 -17.242188 22.140625 -15.828125 C 22.609375 -14.410156 22.84375 -12.867188 22.84375 -11.203125 C 22.84375 -9.535156 22.609375 -7.992188 22.140625 -6.578125 C 21.671875 -5.160156 20.984375 -3.929688 20.078125 -2.890625 C 19.171875 -1.859375 18.046875 -1.050781 16.703125 -0.46875 C 15.359375 0.101562 13.8125 0.390625 12.0625 0.390625 C 10.3125 0.390625 8.765625 0.101562 7.421875 -0.46875 C 6.078125 -1.050781 4.945312 -1.859375 4.03125 -2.890625 C 3.113281 -3.929688 2.421875 -5.160156 1.953125 -6.578125 C 1.484375 -7.992188 1.25 -9.535156 1.25 -11.203125 Z M 6.6875 -11.203125 C 6.6875 -9.835938 6.789062 -8.570312 7 -7.40625 C 7.21875 -6.238281 7.554688 -5.234375 8.015625 -4.390625 C 8.472656 -3.554688 9.054688 -2.898438 9.765625 -2.421875 C 10.484375 -1.941406 11.347656 -1.703125 12.359375 -1.703125 C 13.273438 -1.703125 14.050781 -1.941406 14.6875 -2.421875 C 15.320312 -2.898438 15.84375 -3.554688 16.25 -4.390625 C 16.65625 -5.234375 16.945312 -6.238281 17.125 -7.40625 C 17.3125 -8.570312 17.40625 -9.835938 17.40625 -11.203125 C 17.40625 -12.566406 17.300781 -13.828125 17.09375 -14.984375 C 16.894531 -16.148438 16.578125 -17.15625 16.140625 -18 C 15.703125 -18.84375 15.125 -19.503906 14.40625 -19.984375 C 13.695312 -20.460938 12.832031 -20.703125 11.8125 -20.703125 C 10.832031 -20.703125 10.007812 -20.460938 9.34375 -19.984375 C 8.6875 -19.503906 8.160156 -18.84375 7.765625 -18 C 7.367188 -17.15625 7.085938 -16.148438 6.921875 -14.984375 C 6.765625 -13.828125 6.6875 -12.566406 6.6875 -11.203125 Z M 6.6875 -11.203125 "/></g></g></g><g fill="#000000" fill-opacity="1"><g transform="translate(146.335879, 40.875)"><g><path d="M 2.265625 -6.34375 C 2.265625 -7.6875 2.296875 -8.929688 2.359375 -10.078125 C 2.429688 -11.234375 2.46875 -12.453125 2.46875 -13.734375 L 0.359375 -13.984375 L 0.359375 -15.234375 C 0.691406 -15.359375 1.109375 -15.484375 1.609375 -15.609375 C 2.117188 -15.742188 2.640625 -15.859375 3.171875 -15.953125 C 3.703125 -16.046875 4.21875 -16.128906 4.71875 -16.203125 C 5.21875 -16.273438 5.640625 -16.335938 5.984375 -16.390625 L 7.078125 -16.390625 C 7.078125 -14.785156 7.039062 -13.207031 6.96875 -11.65625 C 6.90625 -10.113281 6.875 -8.597656 6.875 -7.109375 C 6.875 -5.359375 7.050781 -4.097656 7.40625 -3.328125 C 7.757812 -2.554688 8.414062 -2.171875 9.375 -2.171875 C 10.039062 -2.171875 10.65625 -2.421875 11.21875 -2.921875 C 11.78125 -3.429688 12.242188 -4.238281 12.609375 -5.34375 L 12.609375 -13.734375 L 10.53125 -13.984375 L 10.53125 -15.234375 C 10.851562 -15.359375 11.253906 -15.484375 11.734375 -15.609375 C 12.210938 -15.742188 12.710938 -15.859375 13.234375 -15.953125 C 13.753906 -16.046875 14.269531 -16.128906 14.78125 -16.203125 C 15.289062 -16.273438 15.738281 -16.335938 16.125 -16.390625 L 17.21875 -16.390625 L 17.21875 -2.265625 L 19.328125 -2.015625 L 19.328125 -0.890625 C 19.023438 -0.765625 18.648438 -0.632812 18.203125 -0.5 C 17.753906 -0.375 17.285156 -0.253906 16.796875 -0.140625 C 16.304688 -0.0234375 15.820312 0.0664062 15.34375 0.140625 C 14.863281 0.210938 14.429688 0.269531 14.046875 0.3125 L 12.953125 0.3125 L 12.734375 -3.484375 L 12.609375 -3.484375 C 12.503906 -3.035156 12.3125 -2.582031 12.03125 -2.125 C 11.75 -1.664062 11.390625 -1.25 10.953125 -0.875 C 10.515625 -0.5 10 -0.195312 9.40625 0.03125 C 8.8125 0.269531 8.148438 0.390625 7.421875 0.390625 C 6.609375 0.390625 5.882812 0.285156 5.25 0.078125 C 4.625 -0.117188 4.085938 -0.472656 3.640625 -0.984375 C 3.191406 -1.503906 2.847656 -2.195312 2.609375 -3.0625 C 2.378906 -3.925781 2.265625 -5.019531 2.265625 -6.34375 Z M 2.265625 -6.34375 "/></g></g></g><g fill="#000000" fill-opacity="1"><g transform="translate(166.234991, 40.875)"><g><path d="M 2.140625 -21.40625 L -0.28125 -21.65625 L -0.28125 -22.90625 C 0.03125 -23.039062 0.445312 -23.171875 0.96875 -23.296875 C 1.5 -23.421875 2.046875 -23.53125 2.609375 -23.625 C 3.171875 -23.726562 3.722656 -23.816406 4.265625 -23.890625 C 4.816406 -23.960938 5.28125 -24.019531 5.65625 -24.0625 L 6.75 -24.0625 L 6.75 -12.984375 L 6.8125 -12.984375 C 7.238281 -14.054688 7.890625 -14.890625 8.765625 -15.484375 C 9.640625 -16.085938 10.675781 -16.390625 11.875 -16.390625 C 13.75 -16.390625 15.207031 -15.738281 16.25 -14.4375 C 17.300781 -13.132812 17.828125 -11.160156 17.828125 -8.515625 C 17.828125 -5.585938 17.050781 -3.390625 15.5 -1.921875 C 13.957031 -0.453125 11.691406 0.28125 8.703125 0.28125 C 8.171875 0.28125 7.570312 0.242188 6.90625 0.171875 C 6.25 0.0976562 5.609375 0.0078125 4.984375 -0.09375 C 4.367188 -0.195312 3.800781 -0.320312 3.28125 -0.46875 C 2.757812 -0.625 2.378906 -0.773438 2.140625 -0.921875 Z M 9.796875 -13.828125 C 8.984375 -13.828125 8.332031 -13.53125 7.84375 -12.9375 C 7.351562 -12.351562 6.988281 -11.613281 6.75 -10.71875 L 6.75 -2.234375 C 7.050781 -2.023438 7.421875 -1.851562 7.859375 -1.71875 C 8.296875 -1.59375 8.789062 -1.53125 9.34375 -1.53125 C 10.5625 -1.53125 11.453125 -2.070312 12.015625 -3.15625 C 12.578125 -4.25 12.859375 -5.957031 12.859375 -8.28125 C 12.859375 -9.96875 12.628906 -11.3125 12.171875 -12.3125 C 11.710938 -13.320312 10.921875 -13.828125 9.796875 -13.828125 Z M 9.796875 -13.828125 "/></g></g></g><g fill="#000000" fill-opacity="1"><g transform="translate(185.046365, 40.875)"><g><path d="M 15.546875 -2.6875 C 15.378906 -2.320312 15.109375 -1.953125 14.734375 -1.578125 C 14.359375 -1.210938 13.898438 -0.882812 13.359375 -0.59375 C 12.816406 -0.300781 12.1875 -0.0664062 11.46875 0.109375 C 10.757812 0.296875 9.988281 0.390625 9.15625 0.390625 C 7.832031 0.390625 6.65625 0.191406 5.625 -0.203125 C 4.601562 -0.597656 3.75 -1.164062 3.0625 -1.90625 C 2.382812 -2.644531 1.867188 -3.523438 1.515625 -4.546875 C 1.160156 -5.566406 0.984375 -6.71875 0.984375 -8 C 0.984375 -10.726562 1.695312 -12.804688 3.125 -14.234375 C 4.5625 -15.671875 6.550781 -16.390625 9.09375 -16.390625 C 10.175781 -16.390625 11.191406 -16.238281 12.140625 -15.9375 C 13.085938 -15.632812 13.875 -15.140625 14.5 -14.453125 C 15.132812 -13.773438 15.570312 -12.878906 15.8125 -11.765625 C 16.0625 -10.660156 16.050781 -9.3125 15.78125 -7.71875 L 5.953125 -7.71875 C 5.972656 -6.03125 6.40625 -4.679688 7.25 -3.671875 C 8.09375 -2.671875 9.332031 -2.171875 10.96875 -2.171875 C 11.675781 -2.171875 12.40625 -2.273438 13.15625 -2.484375 C 13.914062 -2.703125 14.507812 -2.984375 14.9375 -3.328125 Z M 8.953125 -14.5625 C 8.523438 -14.5625 8.144531 -14.484375 7.8125 -14.328125 C 7.488281 -14.179688 7.203125 -13.910156 6.953125 -13.515625 C 6.710938 -13.117188 6.515625 -12.582031 6.359375 -11.90625 C 6.210938 -11.238281 6.109375 -10.394531 6.046875 -9.375 L 11.203125 -9.375 C 11.347656 -11.039062 11.25 -12.320312 10.90625 -13.21875 C 10.570312 -14.113281 9.921875 -14.5625 8.953125 -14.5625 Z M 8.953125 -14.5625 "/></g></g></g></svg>